<?xml version="1.0" standalone="no"?>
<!DOCTYPE svg PUBLIC "-//W3C//DTD SVG 20010904//EN"
 "http://www.w3.org/TR/2001/REC-SVG-20010904/DTD/svg10.dtd">
<svg version="1.0" xmlns="http://www.w3.org/2000/svg"
 width="112.000000pt" height="112.000000pt" viewBox="0 0 112.000000 112.000000"
 preserveAspectRatio="xMidYMid meet">

<g transform="translate(0.000000,112.000000) scale(0.100000,-0.100000)"
fill="#000000" stroke="none">
<path d="M478 983 c-9 -2 -20 -13 -23 -24 -5 -13 -12 -18 -24 -14 -27 8 -39
-14 -39 -72 0 -29 -1 -57 -1 -63 -1 -5 -25 -10 -53 -10 -74 -1 -183 -16 -246
-35 -46 -14 -56 -22 -70 -53 -19 -45 -21 -203 -2 -280 11 -48 38 -81 54 -65
10 10 7 53 -4 53 -5 0 -10 -9 -10 -20 0 -11 -4 -20 -9 -20 -10 0 -23 69 -15
82 3 5 29 9 58 7 69 -2 89 7 73 32 -9 15 -9 23 1 37 26 36 42 82 44 127 2 52
24 74 55 54 34 -21 43 -59 43 -180 0 -65 4 -120 9 -124 6 -3 9 32 8 87 l-2 92
33 9 c28 9 32 14 32 43 0 19 5 34 11 34 8 0 7 6 -2 17 -12 15 -12 16 3 11 18
-7 33 28 29 68 -3 36 24 48 121 51 97 3 123 -6 112 -39 -3 -10 -1 -24 4 -31 5
-7 13 -31 17 -54 7 -47 18 -54 35 -22 11 20 7 34 -11 34 -5 0 -8 5 -6 10 1 6
27 11 57 11 30 1 115 5 188 9 129 7 132 8 126 29 -13 43 -34 66 -57 62 -12 -3
-88 -8 -169 -11 l-146 -6 -7 40 c-4 22 -16 55 -28 73 -18 26 -33 34 -82 44
-63 13 -79 14 -107 7z m500 -201 c2 -7 -6 -12 -17 -12 -21 0 -27 11 -14 24 9
9 26 2 31 -12z m-258 -11 c0 -6 -4 -13 -10 -16 -5 -3 -10 1 -10 9 0 9 5 16 10
16 6 0 10 -4 10 -9z"/>
<path d="M180 965 c-8 -10 -9 -15 -1 -15 6 0 12 -21 12 -52 l2 -53 7 60 c7 65
1 85 -20 60z"/>
<path d="M583 720 c-15 -6 -20 -15 -16 -28 8 -34 103 -22 103 12 0 25 -45 33
-87 16z"/>
<path d="M444 708 c-5 -8 -2 -9 11 -4 15 5 16 4 6 -8 -11 -13 -8 -16 12 -21
36 -9 67 3 67 26 0 16 -7 19 -44 19 -25 0 -48 -5 -52 -12z"/>
<path d="M680 624 c-1 -16 -12 -42 -25 -59 -23 -28 -25 -28 -25 -8 0 13 -8 24
-20 28 -11 3 -20 10 -20 15 0 5 -14 8 -32 7 -36 -2 -74 -32 -80 -62 -3 -16 -9
-12 -31 25 l-28 45 6 -43 c7 -46 60 -156 102 -210 23 -31 26 -32 42 -18 10 9
22 16 28 16 6 0 24 15 40 33 22 25 30 45 31 76 1 23 7 51 12 62 12 21 16 106
6 116 -3 4 -6 -7 -6 -23z m-61 -86 c-2 -40 -16 -52 -63 -54 -42 -1 -49 1 -57
23 -12 32 -12 31 9 36 39 11 112 7 111 -5z"/>
<path d="M555 531 c-34 -7 -37 -24 -5 -29 21 -4 50 13 50 29 0 10 -1 10 -45 0z"/>
<path d="M1091 538 c1 -13 1 -41 1 -64 l-2 -41 -52 -6 c-68 -8 -94 -34 -41
-41 10 -2 19 -13 21 -24 3 -17 -2 -22 -20 -22 -22 0 -49 29 -54 58 -4 26 -14
25 -14 0 0 -15 -7 -29 -16 -32 -20 -8 -84 14 -84 28 0 5 3 6 7 3 12 -12 30 39
25 72 -6 44 -28 53 -96 39 -50 -10 -56 -13 -56 -36 0 -19 -3 -22 -13 -13 -11
8 -13 5 -9 -19 4 -31 -14 -136 -54 -308 -13 -57 -22 -108 -18 -113 15 -25 144
10 237 64 63 37 147 121 147 147 0 11 -7 37 -15 57 -18 43 -18 41 -2 40 36 -1
46 5 49 30 2 22 9 29 33 33 28 5 31 10 44 72 7 37 11 74 8 82 -9 24 -28 19
-26 -6z m-291 -128 c0 -5 -4 -10 -9 -10 -6 0 -13 5 -16 10 -3 6 1 10 9 10 9 0
16 -4 16 -10z"/>
<path d="M413 451 c-12 -15 -36 -32 -55 -38 -105 -36 -149 -53 -184 -71 -21
-10 -45 -17 -51 -15 -7 3 -13 0 -13 -5 0 -6 5 -12 11 -14 8 -3 8 -14 1 -42
-10 -35 -9 -42 14 -72 52 -68 159 -136 267 -170 56 -17 58 -17 76 2 18 18 18
24 6 82 -20 94 -48 330 -42 352 7 27 -4 24 -30 -9z"/>
<path d="M527 32 c-24 -26 -21 -39 3 -17 19 17 21 17 40 0 11 -10 20 -15 20
-12 0 7 -37 47 -43 47 -2 0 -11 -8 -20 -18z"/>
</g>
</svg>
